<svg width="2000" height="1823" viewBox="0 0 2000 1823" fill="none" xmlns="http://www.w3.org/2000/svg">
<path d="M1267.28 11.3861C1306.73 5.51804 1347.39 20.3165 1373.83 50.1648L1373.83 50.1657L1962.18 714.486C1988.58 744.294 1996.61 784.303 1983.83 819.412L1694.46 1614.44C1681.69 1649.54 1649.82 1675.04 1610.44 1680.9L732.719 1811.61L732.718 1811.61C693.273 1817.48 652.613 1802.68 626.171 1772.83L626.17 1772.83L37.8176 1108.51C11.4178 1078.7 3.39439 1038.7 16.1726 1003.59L305.538 208.564C318.316 173.455 350.18 147.964 389.564 142.099L1267.28 11.3848L1267.28 11.3861Z" stroke="#0080C4" stroke-width="20"/>
</svg>
