<svg class="logo-w" width="150" height="63" viewBox="0 0 125 32" fill="none" xmlns="http://www.w3.org/2000/svg"> <g clip-path="url(#clip0_3006_666)"> <path d="M61.6497 24.1781C60.6661 24.1781 59.7742 24.0126 58.9793 23.6814C58.1843 23.3503 57.5014 22.8987 56.9407 22.3318C56.3801 21.7649 55.947 21.1026 55.6412 20.35C55.3354 19.5974 55.1825 18.8047 55.1825 17.9718C55.1825 17.1088 55.3303 16.3011 55.6259 15.5384C55.9214 14.7758 56.3547 14.1085 56.9152 13.5315C57.4759 12.9545 58.1587 12.4979 58.9639 12.1568C59.7691 11.8206 60.6712 11.6501 61.67 11.6501C62.6688 11.6501 63.5657 11.8207 64.3506 12.1568C65.1405 12.493 65.8132 12.9496 66.3636 13.5165C66.9191 14.0834 67.3421 14.7457 67.6275 15.4983C67.918 16.2509 68.0607 17.0386 68.0607 17.8514C68.0607 18.0521 68.0555 18.2428 68.0505 18.4284C68.0403 18.614 68.0251 18.7645 67.9945 18.8899H58.5052C58.5511 19.3666 58.6683 19.7881 58.8569 20.1593C59.0454 20.5306 59.285 20.8417 59.5857 21.1076C59.8813 21.3685 60.2176 21.5691 60.5947 21.7096C60.9718 21.8501 61.3592 21.9153 61.7668 21.9153C62.3936 21.9153 62.9797 21.7647 63.5352 21.4637C64.0907 21.1627 64.4679 20.7663 64.6717 20.2746L67.3676 21.0121C66.914 21.9353 66.1904 22.6929 65.2017 23.2849C64.2028 23.882 63.0205 24.178 61.6496 24.178L61.6497 24.1781ZM64.8348 16.8881C64.7584 15.9799 64.4169 15.2524 63.8156 14.7056C63.2142 14.1587 62.4854 13.8877 61.6242 13.8877C61.2012 13.8877 60.8088 13.963 60.4418 14.1085C60.0749 14.254 59.7487 14.4597 59.4685 14.7206C59.1882 14.9814 58.9588 15.2976 58.7754 15.6688C58.597 16.0401 58.49 16.4465 58.4594 16.8931H64.8348V16.8881Z" fill="#072E43"></path> <path d="M75.6542 24.1781C74.6553 24.1781 73.7584 24.0076 72.9583 23.6714C72.1633 23.3353 71.4855 22.8736 70.93 22.2967C70.3744 21.7198 69.9515 21.0524 69.6508 20.2998C69.3552 19.5473 69.2074 18.7545 69.2074 17.9216C69.2074 17.0737 69.3552 16.276 69.6508 15.5234C69.9464 14.7708 70.3745 14.1035 70.93 13.5265C71.4854 12.9495 72.1582 12.4929 72.9583 12.1518C73.7533 11.8156 74.6553 11.6451 75.6542 11.6451C76.653 11.6451 77.5499 11.8157 78.3348 12.1518C79.1247 12.488 79.7974 12.9496 80.3478 13.5265C80.9033 14.1035 81.3263 14.7708 81.6269 15.5234C81.9225 16.2759 82.0703 17.0787 82.0703 17.9216C82.0703 18.7545 81.9225 19.5422 81.6269 20.2998C81.3314 21.0524 80.9084 21.7197 80.363 22.2967C79.8177 22.8737 79.145 23.3303 78.35 23.6714C77.5499 24.0075 76.653 24.1781 75.6542 24.1781ZM72.4435 17.9266C72.4435 18.4634 72.525 18.9552 72.6881 19.3916C72.8512 19.8281 73.0805 20.2094 73.3659 20.5356C73.6563 20.8566 73.9927 21.1075 74.3851 21.2831C74.7775 21.4588 75.1954 21.5491 75.649 21.5491C76.1026 21.5491 76.5256 21.4588 76.9129 21.2831C77.3053 21.1075 77.6417 20.8566 77.9322 20.5356C78.2227 20.2145 78.4469 19.8281 78.61 19.3816C78.7731 18.9351 78.8546 18.4433 78.8546 17.9065C78.8546 17.3847 78.7731 16.8981 78.61 16.4515C78.4469 16.0049 78.2176 15.6186 77.9322 15.2975C77.6417 14.9764 77.3053 14.7256 76.9129 14.5499C76.5205 14.3743 76.1026 14.284 75.649 14.284C75.1954 14.284 74.7725 14.3743 74.3851 14.5599C73.9927 14.7456 73.6564 14.9964 73.3659 15.3226C73.0755 15.6436 72.8512 16.03 72.6881 16.4765C72.525 16.9181 72.4435 17.4047 72.4435 17.9265V17.9266Z" fill="#072E43"></path> <path d="M88.7464 24.0176C87.9157 24.0176 87.1666 23.857 86.499 23.5309C85.8263 23.2098 85.2453 22.7682 84.7511 22.2063C84.2568 21.6444 83.8796 20.9972 83.6146 20.2546C83.3496 19.5171 83.2171 18.7343 83.2171 17.9015C83.2171 17.0235 83.3597 16.2107 83.6401 15.4581C83.9204 14.7056 84.3128 14.0432 84.8123 13.4763C85.3117 12.9094 85.9131 12.4629 86.6164 12.1367C87.3196 11.8156 88.0943 11.65 88.9351 11.65C89.8881 11.65 90.7239 11.8607 91.4425 12.2822C92.161 12.7037 92.7573 13.2706 93.221 13.978V11.8557H95.9628V23.3652C95.9628 24.2583 95.7895 25.0561 95.4481 25.7635C95.1066 26.4709 94.6327 27.073 94.0313 27.5647C93.43 28.0564 92.7114 28.4326 91.8756 28.6936C91.0399 28.9545 90.1276 29.0849 89.144 29.0849C87.7986 29.0849 86.6723 28.8642 85.7601 28.4277C84.8479 27.9912 84.0631 27.3691 83.4056 26.5713L85.118 24.9357C85.5869 25.5026 86.178 25.9492 86.8864 26.2752C87.5948 26.5963 88.349 26.7619 89.1491 26.7619C89.6332 26.7619 90.097 26.6967 90.5454 26.5662C90.9888 26.4358 91.3863 26.2301 91.7278 25.9542C92.0692 25.6782 92.3393 25.322 92.5381 24.8905C92.7318 24.459 92.8285 23.9522 92.8285 23.3702V21.85C92.4208 22.5424 91.85 23.0742 91.1162 23.4555C90.3772 23.8267 89.5873 24.0174 88.7464 24.0174L88.7464 24.0176ZM89.7962 21.5491C90.1377 21.5491 90.4689 21.4939 90.7798 21.3885C91.0907 21.2831 91.3812 21.1326 91.6462 20.952C91.9112 20.7664 92.1456 20.5506 92.3495 20.3047C92.5533 20.0589 92.7062 19.798 92.8184 19.5221V16.6371C92.5381 15.9297 92.0947 15.3627 91.4934 14.9312C90.8921 14.4997 90.2652 14.284 89.6078 14.284C89.1236 14.284 88.6854 14.3894 88.293 14.5951C87.9006 14.8007 87.5642 15.0817 87.2839 15.4279C87.0036 15.7741 86.7895 16.1705 86.6417 16.617C86.4939 17.0635 86.4175 17.5251 86.4175 18.0017C86.4175 18.4934 86.5041 18.955 86.6774 19.3865C86.8507 19.818 87.0851 20.1943 87.3909 20.5154C87.6966 20.8364 88.0482 21.0923 88.4559 21.278C88.8688 21.4536 89.3121 21.5489 89.7962 21.5489V21.5491Z" fill="#072E43"></path> <path d="M105.314 14.535C104.361 14.5501 103.51 14.7307 102.761 15.0769C102.012 15.4231 101.472 15.9399 101.146 16.6323V23.9474H98.0011V11.8609H100.886V14.4448C101.105 14.0283 101.36 13.6571 101.66 13.3259C101.956 12.9948 102.277 12.7088 102.623 12.4629C102.965 12.2171 103.317 12.0264 103.668 11.896C104.02 11.7656 104.361 11.7003 104.687 11.7003C104.861 11.7003 104.988 11.7003 105.075 11.7003C105.161 11.7003 105.243 11.7104 105.319 11.7254V14.535H105.314Z" fill="#072E43"></path> <path d="M106.848 23.9473V11.8608H109.987V23.9473H106.848ZM110.222 9.16651C110.222 10.1499 109.412 10.9426 108.418 10.9426C107.419 10.9426 106.614 10.1448 106.614 9.16651C106.614 8.18819 107.424 7.39038 108.418 7.39038C109.417 7.39038 110.222 8.18813 110.222 9.16651Z" fill="#072E43"></path> <path d="M117.341 24.1781C116.495 24.1781 115.716 24.0176 114.997 23.6914C114.278 23.3704 113.662 22.9238 113.147 22.3519C112.632 21.7849 112.23 21.1176 111.939 20.355C111.649 19.5924 111.506 18.7746 111.506 17.8966C111.506 17.0186 111.644 16.2057 111.914 15.4532C112.189 14.7006 112.566 14.0383 113.05 13.4714C113.534 12.9044 114.11 12.4579 114.783 12.1317C115.456 11.8107 116.19 11.6451 116.985 11.6451C117.892 11.6451 118.707 11.8608 119.436 12.2923C120.165 12.7238 120.73 13.2857 121.133 13.9781V7.62119H124.272V20.3951C124.272 20.7161 124.328 20.9469 124.435 21.0874C124.542 21.2279 124.731 21.3032 124.996 21.3182V23.9472C124.451 24.0526 124.002 24.1078 123.661 24.1078C123.1 24.1078 122.636 23.9673 122.28 23.6914C121.918 23.4154 121.719 23.0542 121.668 22.6077L121.597 21.8451C121.143 22.6127 120.532 23.1947 119.757 23.5861C118.992 23.9824 118.182 24.1781 117.341 24.1781ZM118.162 21.5491C118.457 21.5491 118.763 21.4989 119.074 21.3985C119.385 21.2981 119.676 21.1577 119.94 20.972C120.206 20.7864 120.445 20.5706 120.654 20.3247C120.863 20.0789 121.026 19.8079 121.133 19.5169V16.632C121.006 16.2959 120.832 15.9847 120.608 15.6988C120.384 15.4129 120.124 15.1669 119.833 14.9613C119.543 14.7556 119.242 14.59 118.921 14.4646C118.6 14.3442 118.284 14.279 117.973 14.279C117.504 14.279 117.071 14.3794 116.674 14.58C116.276 14.7806 115.935 15.0516 115.655 15.3978C115.374 15.744 115.155 16.1404 114.997 16.5869C114.839 17.0335 114.763 17.4951 114.763 17.9717C114.763 18.4784 114.849 18.9501 115.023 19.3766C115.196 19.8081 115.43 20.1844 115.726 20.5054C116.021 20.8265 116.378 21.0824 116.791 21.2681C117.204 21.4537 117.657 21.549 118.162 21.549V21.5491Z" fill="#072E43"></path> <path d="M50.4533 7.9975V18.5638L41.8916 7.9975H39.1855V23.9975H42.5899V13.6971L50.8407 23.9975H53.6029V7.9975H50.4533Z" fill="#072E43"></path> <path d="M25.9864 4.63578L24.7327 3.92334C22.7961 8.35859 20.1614 12.4275 16.9609 15.9998C20.1614 19.5671 22.7961 23.6411 24.7327 28.0763L25.9864 27.3639C28.8709 25.7233 30.6494 22.6928 30.6494 19.4115V12.5881C30.6545 9.30684 28.8759 6.2764 25.9864 4.63578Z" fill="#F0000B"></path> <path opacity="0.8" d="M10.6878 21.8099C13.3073 24.7751 15.4528 28.1617 17.0071 31.8494C18.0417 31.6637 19.0558 31.3075 19.9935 30.7706L24.7381 28.0714C22.8015 23.6361 20.1668 19.5672 16.9663 15.9949C15.0603 18.1222 12.9607 20.0689 10.6877 21.8099H10.6878Z" fill="#F0000B"></path> <path opacity="0.6" d="M3.31348 26.4207C3.73139 26.7669 4.17984 27.083 4.66397 27.359L10.6623 30.7657C12.6091 31.8745 14.8615 32.2307 17.002 31.8444C15.4476 28.1567 13.3072 24.7751 10.6826 21.8049C8.39442 23.566 5.92273 25.1113 3.31348 26.4208V26.4207Z" fill="#F0000B"></path> <path opacity="0.8" d="M16.9663 16.0001C20.1667 12.4328 22.8015 8.35882 24.738 3.92357L19.9934 1.22432C19.0506 0.69251 18.0416 0.33626 17.0019 0.150635C15.4476 3.83832 13.3072 7.21995 10.6826 10.1901C12.9606 11.9311 15.0603 13.8778 16.9663 16.0001Z" fill="#F0000B"></path> <path opacity="0.6" d="M17.002 0.150567C14.8565 -0.235745 12.6039 0.120442 10.6623 1.22925L4.66397 4.636C4.17984 4.91194 3.73133 5.228 3.31348 5.57419C5.9228 6.88369 8.39442 8.429 10.6877 10.185C13.3072 7.21982 15.4527 3.83825 17.002 0.150567Z" fill="#F0000B"></path> <path opacity="0.6" d="M10.6878 10.1899C8.76647 12.3674 6.58529 14.3191 4.2002 15.9999C6.59037 17.6806 8.76641 19.6324 10.6878 21.8098C12.9607 20.0688 15.0603 18.1221 16.9663 15.9999C15.0603 13.8776 12.9607 11.9309 10.6878 10.1899Z" fill="#F0000B"></path> <path opacity="0.4" d="M4.19517 16C2.85998 16.9383 1.45851 17.7962 0.000976562 18.5588V19.4067C0.000976562 22.1361 1.23428 24.6949 3.31351 26.4208C5.92283 25.1113 8.39445 23.566 10.6878 21.8099C8.76653 19.6324 6.58535 17.6808 4.19517 16Z" fill="#F0000B"></path> <path opacity="0.4" d="M10.6877 10.1902C8.39445 8.43416 5.92784 6.88878 3.31351 5.57935C1.23428 7.30528 0.000976562 9.85903 0.000976562 12.5885V13.4363C1.45851 14.199 2.85998 15.0569 4.19517 16.0002C6.58535 14.3194 8.76647 12.3627 10.6878 10.1902L10.6877 10.1902Z" fill="#F0000B"></path> </g> <defs> <clipPath id="clip0_3006_666"> <rect width="125" height="32" fill="white"></rect> </clipPath> </defs> </svg>
